<?xml version="1.0" encoding="UTF-8"?>
<svg width="32px" height="32px" viewBox="0 0 32 32" version="1.1" xmlns="http://www.w3.org/2000/svg">
    <title>Telegram</title>
    <g id="Telegram" stroke="none" fill="none" fill-rule="nonzero">
        <circle cx="16" cy="16" r="14" fill="#229ED9"/>
        <path d="M8.4 15.6c4.08-1.78 6.8-2.95 8.16-3.52 3.88-1.62 4.68-1.9 5.2-1.9.12 0 .38.03.55.17.14.12.18.28.2.39.02.11.04.36.02.56-.22 2.34-1.17 8-1.66 10.62-.2 1.11-.6 1.48-1 1.52-.84.08-1.48-.56-2.3-1.1-1.28-.84-2-1.36-3.24-2.18-1.43-.94-.5-1.46.31-2.31.21-.22 3.87-3.55 3.94-3.85.01-.04.02-.18-.07-.25-.09-.07-.23-.05-.33-.03-.14.03-2.38 1.51-6.72 4.44-.64.44-1.21.65-1.72.64-.57-.01-1.66-.32-2.47-.58-.99-.32-1.78-.49-1.71-1.04.04-.29.44-.58 1.19-.88Z" fill="#FFFFFF"/>
    </g>
</svg>
